<?xml version="1.0" encoding="UTF-8"?>
<svg id="Layer_1" data-name="Layer 1" xmlns="http://www.w3.org/2000/svg" viewBox="0 0 500 500">
  <defs>
    <style>
      .cls-1 {
        stroke-width: 2.82px;
      }

      .cls-1, .cls-2 {
        fill: none;
        stroke: #303030;
        stroke-miterlimit: 10;
      }

      .cls-2 {
        stroke-width: 4.24px;
      }

      .cls-3 {
        fill: #303030;
      }
    </style>
  </defs>
  <path class="cls-3" d="M288.13,271.35c-.03-6.74,3.45-12.22,7.77-12.24,4.32-.02,7.84,5.43,7.87,12.17.03,6.74-3.45,12.22-7.77,12.24s-7.84-5.43-7.87-12.17Z"/>
  <ellipse class="cls-3" cx="273.63" cy="275" rx="7.82" ry="12.2" transform="translate(-77.17 109.35) rotate(-19.87)"/>
  <path class="cls-3" d="M255.43,299.36c-3.46-5.07-3.58-11.01-.26-13.29,3.32-2.27,8.82,0,12.29,5.06,3.46,5.07,3.58,11.01.26,13.29-3.32,2.27-8.82,0-12.29-5.06Z"/>
  <path class="cls-3" d="M314.35,311.82c0,5.3-3.42,10.19-8.71,10.58-1.64.12-3.51-.14-5.61-1.02-.07-.03-.14-.05-.21-.08l.03.18c-4.57-1.78-8.58-.3-10.8.93-.94.52-1.78,1.2-2.58,1.92-1.7,1.52-3.38,2.39-4.96,2.82-5.12,1.39-9.96-2.09-11.72-7.09-.42-1.18-.49-2.48-.38-3.73.24-2.76,1.39-5.36,3.15-7.5,1.78-2.17,3.91-6.15,3.91-6.15,2.24-4.95,3.57-7.66,5.45-9.32v-.06s1.88-2.6,6.61-3.13c5.69-.64,7.48.88,13.77,7.47,0,0,3.33,3.04,5.73,4.5,2.37,1.44,4.32,3.51,5.45,6.03.52,1.15.88,2.4.87,3.65Z"/>
  <path class="cls-3" d="M310.7,297.86c-3.9-1-5.82-6.63-4.29-12.58,1.53-5.94,5.92-9.95,9.82-8.95,3.9,1,5.82,6.63,4.29,12.58-1.53,5.94-5.92,9.95-9.82,8.95Z"/>
  <circle class="cls-2" cx="287.25" cy="293.32" r="48.37"/>
  <path class="cls-3" d="M386.45,211.96l-8.76,1.49-1.94-11.4c-.26-1.54-1.78-2.57-3.39-2.3l-32.72,5.42c-1.65.27-2.77,1.78-2.51,3.35l1.96,11.5-22.81,3.76-12.95-19.2c-2.58-2.92-6.48-4.29-10.32-3.64l-35.38,6.03c-3.82.65-7.02,3.22-8.49,6.81l-6.4,22.66-74.37,12.68-2.45.51c-3.81.79-6.34,4.31-5.71,7.98l18.4,107.97.78,4.57c.64,3.75,4.33,6.24,8.25,5.57l220.32-37.55c3.91-.67,6.57-4.24,5.93-7.98l-.78-4.58-18.42-108.08c-.64-3.74-4.33-6.24-8.25-5.57ZM181.36,268.92c-3.76.64-7.32-1.89-7.96-5.64s1.89-7.32,5.64-7.96,7.32,1.89,7.96,5.64c.64,3.76-1.89,7.32-5.64,7.96ZM296.75,346.48c-29.65,5.05-57.78-14.88-62.83-44.53-5.05-29.65,14.88-57.78,44.53-62.83,29.65-5.05,57.78,14.88,62.83,44.53,5.05,29.65-14.88,57.78-44.53,62.83Z"/>
  <circle class="cls-1" cx="160.2" cy="252.89" r="7.74"/>
  <path class="cls-3" d="M157.08,247.23l-5.77-8.24c.48-2.99-1.74-8.78-12.96-19.92l.68-.56-5.78-7-.82.82-13.89-25.4-10.45-20.57C86.94,116.93,32.97-.12,32.97-.12L13,.05c13.02,35.36,88.72,168.28,88.72,168.28,13.69,24.49,27.22,47.22,27.22,47.22l-.77.64,5.38,6.86.22-.19s6.98,18.77,12.98,19.43l5.73,8.17c.72,1.03,2.16,1.28,3.19.56l.85-.6c1.03-.72,1.28-2.16.56-3.19ZM147.57,233.66c-.72-1.03-2.16-1.28-3.19-.56l-.85.6c-1.03.72-1.28,2.16-.56,3.19l.64.91c-2.1-2.28-4.95-6.9-8.72-15.85l1.51-1.25s9.67,8.76,12.18,14.39l-1-1.42Z"/>
  <g>
    <path class="cls-3" d="M405.14,197.42c1.86-1.37,4.45-5.99,6.97-19.6l-1.74-.9s-9.33,13.08-8.98,18.45l-1.27,3.5v-.1c-1.63-2.4-1.49-8.34,7.99-23.02l-.78-.4,4.14-8.07.97.62,8.14-27.78,5.81-22.33C436.49,64.98,452.31.05,452.31.05h14.08c-5.15,37.33-33.34,118.3-33.34,118.3-8.14,26.85-16.5,51.95-16.5,51.95l.89.46-3.79,7.85-.26-.13s-3.07,21.69-9.32,21.91l1.07-2.97Z"/>
    <circle class="cls-1" cx="393.99" cy="213.46" r="7.74"/>
    <rect class="cls-3" x="398.81" y="190.13" width="5.62" height="21.15" rx="2.29" ry="2.29" transform="translate(694.84 540.72) rotate(-157.33)"/>
  </g>
</svg>