<?xml version="1.0" encoding="UTF-8"?>
<svg id="Layer_1" data-name="Layer 1" xmlns="http://www.w3.org/2000/svg" viewBox="0 0 320 210">
  <defs>
    <style>
      .cls-1 {
        fill: none;
        stroke: #edebd9;
      }

      .cls-1, .cls-2 {
        stroke-miterlimit: 10;
      }

      .cls-2 {
        stroke: #bcbca2;
        stroke-width: 2px;
      }

      .cls-2, .cls-3 {
        fill: #edebd9;
      }
    </style>
  </defs>
  <g>
    <circle class="cls-1" cx="71.61" cy="100.89" r="6.37"/>
    <circle class="cls-1" cx="264.47" cy="72.88" r="6.37"/>
  </g>
  <g>
    <path class="cls-3" d="M258.3,71.5l-7.23,1.06-1.38-9.4c-.19-1.27-1.41-2.14-2.74-1.95l-26.99,3.84c-1.36.19-2.31,1.41-2.12,2.71l1.39,9.49-18.81,2.66-10.28-16.02c-2.06-2.45-5.25-3.65-8.41-3.18l-29.19,4.29c-3.15.46-5.83,2.52-7.1,5.43l-5.69,18.5-61.35,9.02-2.03.37c-3.15.58-5.29,3.43-4.84,6.45l13.1,89.07.55,3.77c.45,3.09,3.44,5.21,6.68,4.73l181.76-26.72c3.23-.47,5.48-3.36,5.03-6.45l-.56-3.78-13.11-89.16c-.45-3.09-3.44-5.21-6.68-4.73ZM88.69,114.47c-3.1.46-5.98-1.69-6.43-4.78s1.69-5.98,4.78-6.43c3.1-.46,5.98,1.69,6.43,4.78s-1.69,5.98-4.78,6.43ZM182.07,180.36c-24.46,3.6-47.2-13.32-50.8-37.77-3.6-24.46,13.32-47.2,37.77-50.8,24.46-3.6,47.2,13.32,50.8,37.77,3.6,24.46-13.32,47.2-37.77,50.8Z"/>
    <path class="cls-3" d="M69.15,96.19l-4.59-6.88c.45-2.45-1.27-7.25-10.28-16.62l.57-.45-4.61-5.86-.69.66-10.94-21.13-8.2-17.1C13.96-12.21-28.2-109.42-28.2-109.42l-16.41-.23C-34.58-80.34,25.13,30.31,25.13,30.31c10.79,20.38,21.48,39.32,21.48,39.32l-.64.51,4.29,5.74.19-.15s5.39,15.56,10.3,16.21l4.55,6.82c.57.86,1.75,1.09,2.61.52l.71-.48c.86-.57,1.09-1.75.52-2.61ZM61.59,84.85c-.57-.86-1.75-1.09-2.61-.52l-.71.48c-.86.57-1.09,1.75-.52,2.61l.51.76c-1.68-1.92-3.94-5.76-6.87-13.19l1.26-1s7.79,7.38,9.74,12.05l-.79-1.19Z"/>
    <path class="cls-3" d="M273.94,59.9c1.55-1.09,3.77-4.84,6.09-15.98l-1.41-.77s-7.91,10.57-7.73,15l-1.11,2.85v-.08c-1.29-2-1.07-6.88,7-18.77l-.64-.35,3.56-6.56.79.53,7.21-22.68,5.19-18.24c9.29-43.2,23.5-96.26,23.5-96.26l11.57.26c-4.94,30.58-29.62,96.59-29.62,96.59-7.19,21.91-14.53,42.38-14.53,42.38l.72.39-3.26,6.38-.21-.11s-2.93,17.77-8.07,17.83l.94-2.42Z"/>
    <rect class="cls-3" x="268.67" y="53.85" width="4.62" height="17.39" rx="1.88" ry="1.88" transform="translate(493.15 229.82) rotate(-156.02)"/>
  </g>
  <path class="cls-2" d="M214.52,130.09c-3.17-21.59-23.24-36.51-44.83-33.34-21.59,3.17-36.51,23.24-33.34,44.83,3.17,21.59,23.24,36.51,44.83,33.34,21.59-3.17,36.51-23.24,33.34-44.83ZM179.64,164.67c-15.74,2.31-30.37-8.57-32.69-24.31-2.31-15.74,8.57-30.37,24.31-32.69s30.37,8.57,32.69,24.31c2.31,15.74-8.57,30.37-24.31,32.69Z"/>
  <g>
    <path class="cls-3" d="M176.37,123.28c.07-3.86,2.14-6.95,4.61-6.91,2.47.05,4.42,3.21,4.35,7.07-.07,3.86-2.14,6.95-4.61,6.91-2.47-.05-4.42-3.21-4.35-7.07Z"/>
    <ellipse class="cls-3" cx="168.01" cy="125.19" rx="4.48" ry="6.99" transform="translate(-31.11 59.98) rotate(-18.56)"/>
    <path class="cls-3" d="M157.27,138.9c-1.92-2.95-1.91-6.36.03-7.61,1.93-1.26,5.05.11,6.97,3.06,1.92,2.95,1.91,6.36-.03,7.61-1.93,1.26-5.05-.11-6.97-3.06Z"/>
    <path class="cls-3" d="M190.85,146.81c-.07,3.04-2.09,5.79-5.13,5.94-.94.05-2.01-.13-3.2-.66-.04-.02-.08-.03-.12-.05l.02.1c-2.59-1.08-4.91-.29-6.2.39-.55.29-1.03.67-1.5,1.07-.99.85-1.97,1.32-2.88,1.55-2.95.73-5.68-1.33-6.62-4.22-.22-.68-.25-1.43-.17-2.14.17-1.58.87-3.05,1.9-4.25,1.05-1.22,2.32-3.47,2.32-3.47,1.35-2.8,2.14-4.34,3.25-5.27v-.03s1.11-1.46,3.83-1.71c3.27-.29,4.27.6,7.79,4.46,0,0,1.87,1.79,3.22,2.65,1.34.85,2.43,2.07,3.05,3.53.28.66.47,1.38.45,2.1Z"/>
    <path class="cls-3" d="M188.94,138.76c-2.22-.62-3.25-3.87-2.3-7.26.95-3.38,3.52-5.62,5.74-5,2.22.62,3.25,3.87,2.29,7.26-.95,3.38-3.52,5.62-5.74,5Z"/>
  </g>
</svg>